<svg width="48" height="49" viewBox="0 0 48 49" fill="none" xmlns="http://www.w3.org/2000/svg">
<g clip-path="url(#clip0_363_988)">
<path d="M23.7845 47.2843C36.368 47.2843 46.569 37.0834 46.569 24.4998C46.569 11.9163 36.368 1.71533 23.7845 1.71533C11.201 1.71533 1 11.9163 1 24.4998C1 37.0834 11.201 47.2843 23.7845 47.2843Z" stroke="#4A3E40" stroke-width="2"/>
<path d="M34.0761 25.3807C34.4577 24.9814 34.4433 24.3484 34.044 23.9669L27.5371 17.7491C27.1378 17.3676 26.5048 17.382 26.1232 17.7813C25.7417 18.1806 25.7561 18.8136 26.1554 19.1951L31.9393 24.722L26.4124 30.5059C26.0309 30.9052 26.0453 31.5382 26.4445 31.9198C26.8438 32.3013 27.4768 32.2869 27.8584 31.8876L34.0761 25.3807ZM14.9035 26.1094L33.3759 25.6896L33.3304 23.6901L14.858 24.1099L14.9035 26.1094Z" fill="#4A3E40"/>
</g>
<defs>
<clipPath id="clip0_363_988">
<rect width="48" height="49" fill="white"/>
</clipPath>
</defs>
</svg>
